<?xml version="1.0" standalone="no"?>
<!DOCTYPE svg PUBLIC "-//W3C//DTD SVG 20010904//EN"
 "http://www.w3.org/TR/2001/REC-SVG-20010904/DTD/svg10.dtd">
<svg version="1.0" xmlns="http://www.w3.org/2000/svg"
 width="700.000000pt" height="700.000000pt" viewBox="0 0 700.000000 700.000000"
 preserveAspectRatio="xMidYMid meet">
<metadata>
Created by potrace 1.11, written by Peter Selinger 2001-2013
</metadata>
<g transform="translate(0.000000,700.000000) scale(0.100000,-0.100000)"
fill="#000000" stroke="none">
<path d="M3395 6971 c-27 -10 -772 -352 -1655 -760 -1313 -607 -1612 -749
-1643 -779 -169 -165 -101 -449 126 -526 40 -13 98 -16 357 -16 l310 0 0
-1560 0 -1560 -315 0 c-291 0 -318 -1 -369 -20 -72 -28 -139 -88 -173 -158
-23 -48 -28 -70 -28 -137 0 -67 5 -89 28 -137 34 -70 101 -130 174 -158 54
-20 55 -20 3306 -18 l3252 3 47 23 c56 28 122 92 149 143 40 80 40 209 -1 290
-28 55 -93 117 -149 143 -43 20 -65 21 -376 26 l-330 5 -3 1557 -2 1557 327 3
328 3 57 28 c70 34 140 110 162 174 9 26 16 79 16 118 0 60 -5 82 -31 134 -17
34 -47 75 -68 92 -22 19 -642 310 -1606 755 -864 398 -1599 738 -1635 755 -84
42 -180 49 -255 20z m-1357 -3638 l-3 -1558 -252 -3 -253 -2 0 1560 0 1560
255 0 255 0 -2 -1557z m1142 -3 l0 -1560 -255 0 -255 0 0 1560 0 1560 255 0
255 0 0 -1560z m1148 3 l-3 -1558 -252 -3 -253 -2 0 1560 0 1560 255 0 255 0
-2 -1557z m1142 -3 l0 -1560 -255 0 -255 0 0 1560 0 1560 255 0 255 0 0 -1560z"/>
<path d="M247 619 c-95 -22 -173 -87 -216 -178 -35 -75 -36 -183 -3 -256 30
-65 94 -131 157 -161 l50 -24 3260 0 3260 0 60 28 c69 33 118 84 152 160 34
72 30 192 -7 266 -31 61 -105 128 -168 153 -45 17 -165 18 -3277 20 -1861 0
-3246 -3 -3268 -8z"/>
</g>
</svg>
